<mxfile host="app.diagrams.net" modified="2024-09-04T13:24:16.795Z" agent="Mozilla/5.0 (Windows NT 10.0; Win64; x64) AppleWebKit/537.36 (KHTML, like Gecko) Chrome/128.0.0.0 Safari/537.36" etag="T3QgacXukhbm3Iff5V1h" version="24.5.4" type="github">
  <diagram name="Page-1" id="58cdce13-f638-feb5-8d6f-7d28b1aa9fa0">
    <mxGraphModel dx="1518" dy="665" grid="1" gridSize="10" guides="1" tooltips="1" connect="1" arrows="1" fold="1" page="1" pageScale="1" pageWidth="1100" pageHeight="850" background="none" math="0" shadow="0">
      <root>
        <mxCell id="0" />
        <mxCell id="1" parent="0" />
        <mxCell id="382b91b5511bd0f7-1" value="" style="ellipse;html=1;shape=startState;fillColor=#000000;strokeColor=#ff0000;rounded=1;shadow=0;comic=0;labelBackgroundColor=none;fontFamily=Verdana;fontSize=12;fontColor=#000000;align=center;direction=south;" parent="1" vertex="1">
          <mxGeometry x="20" y="265" width="30" height="30" as="geometry" />
        </mxCell>
        <mxCell id="382b91b5511bd0f7-5" value="Activity" style="rounded=1;whiteSpace=wrap;html=1;arcSize=24;fillColor=#ffffc0;strokeColor=#ff0000;shadow=0;comic=0;labelBackgroundColor=none;fontFamily=Verdana;fontSize=12;fontColor=#000000;align=center;" parent="1" vertex="1">
          <mxGeometry x="335" y="720" width="120" height="60" as="geometry" />
        </mxCell>
        <mxCell id="Z8nFDehyCDeGjH-VtulY-1" value="" style="edgeStyle=orthogonalEdgeStyle;rounded=0;orthogonalLoop=1;jettySize=auto;html=1;" edge="1" parent="1" source="382b91b5511bd0f7-6" target="382b91b5511bd0f7-7">
          <mxGeometry relative="1" as="geometry" />
        </mxCell>
        <mxCell id="Z8nFDehyCDeGjH-VtulY-8" value="Separou" style="edgeLabel;html=1;align=center;verticalAlign=middle;resizable=0;points=[];" vertex="1" connectable="0" parent="Z8nFDehyCDeGjH-VtulY-1">
          <mxGeometry x="-0.2288" relative="1" as="geometry">
            <mxPoint x="1" as="offset" />
          </mxGeometry>
        </mxCell>
        <mxCell id="382b91b5511bd0f7-6" value="Separando" style="rounded=1;whiteSpace=wrap;html=1;arcSize=24;fillColor=#ffffc0;strokeColor=#ff0000;shadow=0;comic=0;labelBackgroundColor=none;fontFamily=Verdana;fontSize=12;fontColor=#000000;align=center;" parent="1" vertex="1">
          <mxGeometry x="90" y="120" width="120" height="60" as="geometry" />
        </mxCell>
        <mxCell id="Z8nFDehyCDeGjH-VtulY-3" value="" style="edgeStyle=orthogonalEdgeStyle;rounded=0;orthogonalLoop=1;jettySize=auto;html=1;" edge="1" parent="1" source="382b91b5511bd0f7-7" target="382b91b5511bd0f7-9">
          <mxGeometry relative="1" as="geometry" />
        </mxCell>
        <mxCell id="382b91b5511bd0f7-7" value="Conta entrada" style="rounded=1;whiteSpace=wrap;html=1;arcSize=24;fillColor=#ffffc0;strokeColor=#ff0000;shadow=0;comic=0;labelBackgroundColor=none;fontFamily=Verdana;fontSize=12;fontColor=#000000;align=center;" parent="1" vertex="1">
          <mxGeometry x="300" y="120" width="120" height="60" as="geometry" />
        </mxCell>
        <mxCell id="Z8nFDehyCDeGjH-VtulY-5" value="" style="edgeStyle=orthogonalEdgeStyle;rounded=0;orthogonalLoop=1;jettySize=auto;html=1;" edge="1" parent="1" source="382b91b5511bd0f7-9" target="Z8nFDehyCDeGjH-VtulY-4">
          <mxGeometry relative="1" as="geometry" />
        </mxCell>
        <mxCell id="Z8nFDehyCDeGjH-VtulY-10" value="Transferiu" style="edgeLabel;html=1;align=center;verticalAlign=middle;resizable=0;points=[];" vertex="1" connectable="0" parent="Z8nFDehyCDeGjH-VtulY-5">
          <mxGeometry x="-0.3262" y="2" relative="1" as="geometry">
            <mxPoint x="-1" as="offset" />
          </mxGeometry>
        </mxCell>
        <mxCell id="382b91b5511bd0f7-9" value="Tranferindo" style="rounded=1;whiteSpace=wrap;html=1;arcSize=24;fillColor=#ffffc0;strokeColor=#ff0000;shadow=0;comic=0;labelBackgroundColor=none;fontFamily=Verdana;fontSize=12;fontColor=#000000;align=center;" parent="1" vertex="1">
          <mxGeometry x="510" y="120" width="120" height="60" as="geometry" />
        </mxCell>
        <mxCell id="382b91b5511bd0f7-10" value="Activity" style="rounded=1;whiteSpace=wrap;html=1;arcSize=24;fillColor=#ffffc0;strokeColor=#ff0000;shadow=0;comic=0;labelBackgroundColor=none;fontFamily=Verdana;fontSize=12;fontColor=#000000;align=center;" parent="1" vertex="1">
          <mxGeometry x="520" y="720" width="120" height="60" as="geometry" />
        </mxCell>
        <mxCell id="2a3bc250acf0617d-7" value="Container" style="swimlane;whiteSpace=wrap;html=1;rounded=1;shadow=0;comic=0;labelBackgroundColor=none;strokeWidth=1;fontFamily=Verdana;fontSize=12;align=center;" parent="1" vertex="1">
          <mxGeometry x="50" y="825" width="930" height="200" as="geometry" />
        </mxCell>
        <mxCell id="3cde6dad864a17aa-10" style="edgeStyle=elbowEdgeStyle;html=1;labelBackgroundColor=none;endArrow=open;endSize=8;strokeColor=#ff0000;fontFamily=Verdana;fontSize=12;align=left;" parent="2a3bc250acf0617d-7" source="382b91b5511bd0f7-8" target="3cde6dad864a17aa-1" edge="1">
          <mxGeometry relative="1" as="geometry" />
        </mxCell>
        <mxCell id="382b91b5511bd0f7-8" value="Activity" style="rounded=1;whiteSpace=wrap;html=1;arcSize=24;fillColor=#ffffc0;strokeColor=#ff0000;shadow=0;comic=0;labelBackgroundColor=none;fontFamily=Verdana;fontSize=12;fontColor=#000000;align=center;" parent="2a3bc250acf0617d-7" vertex="1">
          <mxGeometry x="215" y="65" width="120" height="60" as="geometry" />
        </mxCell>
        <mxCell id="24f968d109e7d6b4-3" value="" style="ellipse;html=1;shape=endState;fillColor=#000000;strokeColor=#ff0000;rounded=1;shadow=0;comic=0;labelBackgroundColor=none;fontFamily=Verdana;fontSize=12;fontColor=#000000;align=center;" parent="2a3bc250acf0617d-7" vertex="1">
          <mxGeometry x="815" y="80" width="30" height="30" as="geometry" />
        </mxCell>
        <mxCell id="3cde6dad864a17aa-9" style="edgeStyle=elbowEdgeStyle;html=1;labelBackgroundColor=none;endArrow=open;endSize=8;strokeColor=#ff0000;fontFamily=Verdana;fontSize=12;align=left;" parent="2a3bc250acf0617d-7" source="2a3bc250acf0617d-3" target="382b91b5511bd0f7-8" edge="1">
          <mxGeometry relative="1" as="geometry" />
        </mxCell>
        <mxCell id="2a3bc250acf0617d-3" value="" style="ellipse;html=1;shape=startState;fillColor=#000000;strokeColor=#ff0000;rounded=1;shadow=0;comic=0;labelBackgroundColor=none;fontFamily=Verdana;fontSize=12;fontColor=#000000;align=center;direction=south;" parent="2a3bc250acf0617d-7" vertex="1">
          <mxGeometry x="75" y="80" width="30" height="30" as="geometry" />
        </mxCell>
        <mxCell id="3cde6dad864a17aa-11" style="edgeStyle=elbowEdgeStyle;html=1;labelBackgroundColor=none;endArrow=open;endSize=8;strokeColor=#ff0000;fontFamily=Verdana;fontSize=12;align=left;" parent="2a3bc250acf0617d-7" source="3cde6dad864a17aa-1" target="3cde6dad864a17aa-2" edge="1">
          <mxGeometry relative="1" as="geometry" />
        </mxCell>
        <mxCell id="3cde6dad864a17aa-1" value="Activity" style="rounded=1;whiteSpace=wrap;html=1;arcSize=24;fillColor=#ffffc0;strokeColor=#ff0000;shadow=0;comic=0;labelBackgroundColor=none;fontFamily=Verdana;fontSize=12;fontColor=#000000;align=center;" parent="2a3bc250acf0617d-7" vertex="1">
          <mxGeometry x="400" y="65" width="120" height="60" as="geometry" />
        </mxCell>
        <mxCell id="3cde6dad864a17aa-12" style="edgeStyle=elbowEdgeStyle;html=1;labelBackgroundColor=none;endArrow=open;endSize=8;strokeColor=#ff0000;fontFamily=Verdana;fontSize=12;align=left;" parent="2a3bc250acf0617d-7" source="3cde6dad864a17aa-2" target="24f968d109e7d6b4-3" edge="1">
          <mxGeometry relative="1" as="geometry" />
        </mxCell>
        <mxCell id="3cde6dad864a17aa-2" value="Activity" style="rounded=1;whiteSpace=wrap;html=1;arcSize=24;fillColor=#ffffc0;strokeColor=#ff0000;shadow=0;comic=0;labelBackgroundColor=none;fontFamily=Verdana;fontSize=12;fontColor=#000000;align=center;" parent="2a3bc250acf0617d-7" vertex="1">
          <mxGeometry x="585" y="65" width="120" height="60" as="geometry" />
        </mxCell>
        <mxCell id="2a3bc250acf0617d-9" style="edgeStyle=orthogonalEdgeStyle;html=1;labelBackgroundColor=none;endArrow=open;endSize=8;strokeColor=#ff0000;fontFamily=Verdana;fontSize=12;align=left;entryX=0;entryY=0.5;entryDx=0;entryDy=0;" parent="1" source="382b91b5511bd0f7-1" target="Z8nFDehyCDeGjH-VtulY-14" edge="1">
          <mxGeometry relative="1" as="geometry" />
        </mxCell>
        <mxCell id="3cde6dad864a17aa-6" style="edgeStyle=elbowEdgeStyle;html=1;labelBackgroundColor=none;endArrow=open;endSize=8;strokeColor=#ff0000;fontFamily=Verdana;fontSize=12;align=left;entryX=0.75;entryY=1;" parent="1" source="2a3bc250acf0617d-7" edge="1">
          <mxGeometry relative="1" as="geometry">
            <mxPoint x="295" y="835" as="sourcePoint" />
            <mxPoint x="285" y="700" as="targetPoint" />
          </mxGeometry>
        </mxCell>
        <mxCell id="3cde6dad864a17aa-7" style="edgeStyle=elbowEdgeStyle;html=1;labelBackgroundColor=none;endArrow=open;endSize=8;strokeColor=#ff0000;fontFamily=Verdana;fontSize=12;align=left;entryX=0.5;entryY=1;" parent="1" source="2a3bc250acf0617d-7" edge="1">
          <mxGeometry relative="1" as="geometry">
            <mxPoint x="295" y="835" as="sourcePoint" />
            <mxPoint x="255" y="700" as="targetPoint" />
          </mxGeometry>
        </mxCell>
        <mxCell id="3cde6dad864a17aa-8" style="edgeStyle=elbowEdgeStyle;html=1;labelBackgroundColor=none;endArrow=open;endSize=8;strokeColor=#ff0000;fontFamily=Verdana;fontSize=12;align=left;exitX=0.25;exitY=1;" parent="1" target="2a3bc250acf0617d-7" edge="1">
          <mxGeometry relative="1" as="geometry">
            <mxPoint x="225" y="700" as="sourcePoint" />
            <mxPoint x="305" y="720" as="targetPoint" />
          </mxGeometry>
        </mxCell>
        <mxCell id="Z8nFDehyCDeGjH-VtulY-7" value="" style="edgeStyle=orthogonalEdgeStyle;rounded=0;orthogonalLoop=1;jettySize=auto;html=1;" edge="1" parent="1" source="Z8nFDehyCDeGjH-VtulY-4" target="Z8nFDehyCDeGjH-VtulY-6">
          <mxGeometry relative="1" as="geometry" />
        </mxCell>
        <mxCell id="Z8nFDehyCDeGjH-VtulY-4" value="Conta saída" style="rounded=1;whiteSpace=wrap;html=1;arcSize=24;fillColor=#ffffc0;strokeColor=#ff0000;shadow=0;comic=0;labelBackgroundColor=none;fontFamily=Verdana;fontSize=12;fontColor=#000000;align=center;" vertex="1" parent="1">
          <mxGeometry x="732" y="120" width="120" height="60" as="geometry" />
        </mxCell>
        <mxCell id="Z8nFDehyCDeGjH-VtulY-11" value="Tombador de entrada" style="swimlane;whiteSpace=wrap;html=1;" vertex="1" parent="1">
          <mxGeometry x="70" y="80" width="370" height="120" as="geometry" />
        </mxCell>
        <mxCell id="Z8nFDehyCDeGjH-VtulY-12" value="Mesa" style="swimlane;whiteSpace=wrap;html=1;" vertex="1" parent="1">
          <mxGeometry x="470" y="80" width="200" height="120" as="geometry" />
        </mxCell>
        <mxCell id="Z8nFDehyCDeGjH-VtulY-13" value="Tombador de saída" style="swimlane;whiteSpace=wrap;html=1;" vertex="1" parent="1">
          <mxGeometry x="701" y="80" width="350" height="120" as="geometry" />
        </mxCell>
        <mxCell id="Z8nFDehyCDeGjH-VtulY-6" value="Entregando" style="rounded=1;whiteSpace=wrap;html=1;arcSize=24;fillColor=#ffffc0;strokeColor=#ff0000;shadow=0;comic=0;labelBackgroundColor=none;fontFamily=Verdana;fontSize=12;fontColor=#000000;align=center;" vertex="1" parent="Z8nFDehyCDeGjH-VtulY-13">
          <mxGeometry x="202" y="40" width="120" height="60" as="geometry" />
        </mxCell>
        <mxCell id="Z8nFDehyCDeGjH-VtulY-16" style="edgeStyle=orthogonalEdgeStyle;rounded=0;orthogonalLoop=1;jettySize=auto;html=1;exitX=0.5;exitY=0;exitDx=0;exitDy=0;entryX=0;entryY=0.5;entryDx=0;entryDy=0;" edge="1" parent="1" source="Z8nFDehyCDeGjH-VtulY-14" target="382b91b5511bd0f7-6">
          <mxGeometry relative="1" as="geometry">
            <Array as="points">
              <mxPoint x="135" y="220" />
              <mxPoint x="40" y="220" />
              <mxPoint x="40" y="150" />
            </Array>
          </mxGeometry>
        </mxCell>
        <mxCell id="Z8nFDehyCDeGjH-VtulY-17" value="Não" style="edgeLabel;html=1;align=center;verticalAlign=middle;resizable=0;points=[];" vertex="1" connectable="0" parent="Z8nFDehyCDeGjH-VtulY-16">
          <mxGeometry x="-0.4568" relative="1" as="geometry">
            <mxPoint as="offset" />
          </mxGeometry>
        </mxCell>
        <mxCell id="Z8nFDehyCDeGjH-VtulY-44" value="" style="edgeStyle=orthogonalEdgeStyle;rounded=0;orthogonalLoop=1;jettySize=auto;html=1;" edge="1" parent="1" source="Z8nFDehyCDeGjH-VtulY-14" target="Z8nFDehyCDeGjH-VtulY-20">
          <mxGeometry relative="1" as="geometry" />
        </mxCell>
        <mxCell id="Z8nFDehyCDeGjH-VtulY-14" value="Fim de ordem entrada e saída?" style="rhombus;whiteSpace=wrap;html=1;" vertex="1" parent="1">
          <mxGeometry x="95" y="240" width="80" height="80" as="geometry" />
        </mxCell>
        <mxCell id="Z8nFDehyCDeGjH-VtulY-18" value="Aguarda ordem" style="rounded=1;whiteSpace=wrap;html=1;arcSize=24;fillColor=#ffffc0;strokeColor=#ff0000;shadow=0;comic=0;labelBackgroundColor=none;fontFamily=Verdana;fontSize=12;fontColor=#000000;align=center;" vertex="1" parent="1">
          <mxGeometry x="60" y="720" width="120" height="60" as="geometry" />
        </mxCell>
        <mxCell id="Z8nFDehyCDeGjH-VtulY-46" value="" style="edgeStyle=orthogonalEdgeStyle;rounded=0;orthogonalLoop=1;jettySize=auto;html=1;" edge="1" parent="1" source="Z8nFDehyCDeGjH-VtulY-20" target="Z8nFDehyCDeGjH-VtulY-45">
          <mxGeometry relative="1" as="geometry" />
        </mxCell>
        <mxCell id="Z8nFDehyCDeGjH-VtulY-20" value="Fim de contagem na grampeade" style="rhombus;whiteSpace=wrap;html=1;" vertex="1" parent="1">
          <mxGeometry x="240" y="240" width="80" height="80" as="geometry" />
        </mxCell>
        <mxCell id="Z8nFDehyCDeGjH-VtulY-21" value="Robô" style="swimlane;whiteSpace=wrap;html=1;" vertex="1" parent="1">
          <mxGeometry x="470" y="240" width="580" height="340" as="geometry" />
        </mxCell>
        <mxCell id="Z8nFDehyCDeGjH-VtulY-39" style="edgeStyle=orthogonalEdgeStyle;rounded=0;orthogonalLoop=1;jettySize=auto;html=1;exitX=1;exitY=0.5;exitDx=0;exitDy=0;entryX=0;entryY=0.5;entryDx=0;entryDy=0;" edge="1" parent="Z8nFDehyCDeGjH-VtulY-21" source="Z8nFDehyCDeGjH-VtulY-22" target="Z8nFDehyCDeGjH-VtulY-35">
          <mxGeometry relative="1" as="geometry" />
        </mxCell>
        <mxCell id="Z8nFDehyCDeGjH-VtulY-22" value="Pegando" style="rounded=1;whiteSpace=wrap;html=1;arcSize=24;fillColor=#ffffc0;strokeColor=#ff0000;shadow=0;comic=0;labelBackgroundColor=none;fontFamily=Verdana;fontSize=12;fontColor=#000000;align=center;" vertex="1" parent="Z8nFDehyCDeGjH-VtulY-21">
          <mxGeometry x="20" y="218" width="120" height="60" as="geometry" />
        </mxCell>
        <mxCell id="Z8nFDehyCDeGjH-VtulY-34" value="" style="edgeStyle=orthogonalEdgeStyle;rounded=0;orthogonalLoop=1;jettySize=auto;html=1;" edge="1" parent="Z8nFDehyCDeGjH-VtulY-21" source="Z8nFDehyCDeGjH-VtulY-24" target="Z8nFDehyCDeGjH-VtulY-33">
          <mxGeometry relative="1" as="geometry" />
        </mxCell>
        <mxCell id="Z8nFDehyCDeGjH-VtulY-24" value="Depositando" style="rounded=1;whiteSpace=wrap;html=1;arcSize=24;fillColor=#ffffc0;strokeColor=#ff0000;shadow=0;comic=0;labelBackgroundColor=none;fontFamily=Verdana;fontSize=12;fontColor=#000000;align=center;" vertex="1" parent="Z8nFDehyCDeGjH-VtulY-21">
          <mxGeometry x="260" y="78" width="120" height="60" as="geometry" />
        </mxCell>
        <mxCell id="Z8nFDehyCDeGjH-VtulY-32" value="" style="edgeStyle=orthogonalEdgeStyle;rounded=0;orthogonalLoop=1;jettySize=auto;html=1;" edge="1" parent="Z8nFDehyCDeGjH-VtulY-21" source="Z8nFDehyCDeGjH-VtulY-25" target="Z8nFDehyCDeGjH-VtulY-31">
          <mxGeometry relative="1" as="geometry" />
        </mxCell>
        <mxCell id="Z8nFDehyCDeGjH-VtulY-25" value="Descartando" style="rounded=1;whiteSpace=wrap;html=1;arcSize=24;fillColor=#ffffc0;strokeColor=#ff0000;shadow=0;comic=0;labelBackgroundColor=none;fontFamily=Verdana;fontSize=12;fontColor=#000000;align=center;" vertex="1" parent="Z8nFDehyCDeGjH-VtulY-21">
          <mxGeometry x="260" y="228" width="120" height="60" as="geometry" />
        </mxCell>
        <mxCell id="Z8nFDehyCDeGjH-VtulY-37" value="" style="edgeStyle=orthogonalEdgeStyle;rounded=0;orthogonalLoop=1;jettySize=auto;html=1;" edge="1" parent="Z8nFDehyCDeGjH-VtulY-21" source="Z8nFDehyCDeGjH-VtulY-26" target="Z8nFDehyCDeGjH-VtulY-22">
          <mxGeometry relative="1" as="geometry" />
        </mxCell>
        <mxCell id="Z8nFDehyCDeGjH-VtulY-26" value="Aguardando" style="rounded=1;whiteSpace=wrap;html=1;arcSize=24;fillColor=#ffffc0;strokeColor=#ff0000;shadow=0;comic=0;labelBackgroundColor=none;fontFamily=Verdana;fontSize=12;fontColor=#000000;align=center;" vertex="1" parent="Z8nFDehyCDeGjH-VtulY-21">
          <mxGeometry x="20" y="83" width="120" height="60" as="geometry" />
        </mxCell>
        <mxCell id="Z8nFDehyCDeGjH-VtulY-43" style="edgeStyle=orthogonalEdgeStyle;rounded=0;orthogonalLoop=1;jettySize=auto;html=1;exitX=1;exitY=0.5;exitDx=0;exitDy=0;entryX=0.5;entryY=0;entryDx=0;entryDy=0;" edge="1" parent="Z8nFDehyCDeGjH-VtulY-21" source="Z8nFDehyCDeGjH-VtulY-31" target="Z8nFDehyCDeGjH-VtulY-26">
          <mxGeometry relative="1" as="geometry">
            <Array as="points">
              <mxPoint x="560" y="258" />
              <mxPoint x="560" y="40" />
              <mxPoint x="80" y="40" />
            </Array>
          </mxGeometry>
        </mxCell>
        <mxCell id="Z8nFDehyCDeGjH-VtulY-31" value="Conta descarte" style="rounded=1;whiteSpace=wrap;html=1;arcSize=24;fillColor=#ffffc0;strokeColor=#ff0000;shadow=0;comic=0;labelBackgroundColor=none;fontFamily=Verdana;fontSize=12;fontColor=#000000;align=center;" vertex="1" parent="Z8nFDehyCDeGjH-VtulY-21">
          <mxGeometry x="420" y="228" width="120" height="60" as="geometry" />
        </mxCell>
        <mxCell id="Z8nFDehyCDeGjH-VtulY-42" style="edgeStyle=orthogonalEdgeStyle;rounded=0;orthogonalLoop=1;jettySize=auto;html=1;exitX=0.5;exitY=0;exitDx=0;exitDy=0;entryX=0.75;entryY=0;entryDx=0;entryDy=0;" edge="1" parent="Z8nFDehyCDeGjH-VtulY-21" source="Z8nFDehyCDeGjH-VtulY-33" target="Z8nFDehyCDeGjH-VtulY-26">
          <mxGeometry relative="1" as="geometry" />
        </mxCell>
        <mxCell id="Z8nFDehyCDeGjH-VtulY-33" value="Conta depósito" style="rounded=1;whiteSpace=wrap;html=1;arcSize=24;fillColor=#ffffc0;strokeColor=#ff0000;shadow=0;comic=0;labelBackgroundColor=none;fontFamily=Verdana;fontSize=12;fontColor=#000000;align=center;" vertex="1" parent="Z8nFDehyCDeGjH-VtulY-21">
          <mxGeometry x="420" y="78" width="120" height="60" as="geometry" />
        </mxCell>
        <mxCell id="Z8nFDehyCDeGjH-VtulY-40" style="edgeStyle=orthogonalEdgeStyle;rounded=0;orthogonalLoop=1;jettySize=auto;html=1;exitX=0.5;exitY=0;exitDx=0;exitDy=0;entryX=0;entryY=0.5;entryDx=0;entryDy=0;" edge="1" parent="Z8nFDehyCDeGjH-VtulY-21" source="Z8nFDehyCDeGjH-VtulY-35" target="Z8nFDehyCDeGjH-VtulY-24">
          <mxGeometry relative="1" as="geometry" />
        </mxCell>
        <mxCell id="Z8nFDehyCDeGjH-VtulY-41" style="edgeStyle=orthogonalEdgeStyle;rounded=0;orthogonalLoop=1;jettySize=auto;html=1;exitX=0.5;exitY=1;exitDx=0;exitDy=0;entryX=0;entryY=0.5;entryDx=0;entryDy=0;" edge="1" parent="Z8nFDehyCDeGjH-VtulY-21" source="Z8nFDehyCDeGjH-VtulY-35" target="Z8nFDehyCDeGjH-VtulY-25">
          <mxGeometry relative="1" as="geometry" />
        </mxCell>
        <mxCell id="Z8nFDehyCDeGjH-VtulY-35" value="" style="rhombus;whiteSpace=wrap;html=1;" vertex="1" parent="Z8nFDehyCDeGjH-VtulY-21">
          <mxGeometry x="190" y="168" width="30" height="30" as="geometry" />
        </mxCell>
        <mxCell id="Z8nFDehyCDeGjH-VtulY-45" value="Solicita receita" style="rounded=1;whiteSpace=wrap;html=1;arcSize=24;fillColor=#ffffc0;strokeColor=#ff0000;shadow=0;comic=0;labelBackgroundColor=none;fontFamily=Verdana;fontSize=12;fontColor=#000000;align=center;" vertex="1" parent="1">
          <mxGeometry x="220" y="360" width="120" height="60" as="geometry" />
        </mxCell>
      </root>
    </mxGraphModel>
  </diagram>
</mxfile>
